<svg width="50" height="50" viewBox="0 0 198 166" fill="none" xmlns="http://www.w3.org/2000/svg">
<circle r="44.5" transform="matrix(-0.700028 -0.714115 -0.714115 0.700028 131.508 67.1198)" fill="white" stroke="black" stroke-width="4"/>
<circle r="44.5" transform="matrix(-0.700028 -0.714115 -0.714115 0.700028 65.7577 65.7577)" fill="white" stroke="black" stroke-width="4"/>
<rect x="-2.82829" y="-0.0281745" width="89" height="89" transform="matrix(-0.700028 -0.714115 -0.714115 0.700028 159.588 97.948)" fill="white" stroke="black" stroke-width="4"/>
<rect x="104.473" y="37.0972" width="81.32" height="6.5841" transform="rotate(45.3393 104.473 37.0972)" fill="white"/>
<rect x="36.2085" y="93.9663" width="82.0356" height="14.8299" transform="rotate(-46.2697 36.2085 93.9663)" fill="white"/>
<path d="M163.365 93.9387C162.046 96.0666 159.885 98.2518 157.717 100.31C156.443 101.521 155.084 102.628 153.473 103.741" stroke="white" stroke-linecap="round" stroke-linejoin="round"/>
<path d="M162.365 93.9387C161.046 96.0666 158.885 98.2518 156.717 100.31C155.443 101.521 154.084 102.628 152.473 103.741" stroke="white" stroke-linecap="round" stroke-linejoin="round"/>
<rect x="36.961" y="92.8052" width="6.24458" height="2.97338" transform="rotate(45.6452 36.961 92.8052)" fill="white"/>
<circle cx="69.6329" cy="66.9387" r="41" fill="white"/>
<circle cx="127.633" cy="67.9387" r="41" fill="white"/>
</svg>
